# xmcd
#
# Track frame offsets:
# 150
# 14520
# 27730
# 43552
# 56908
# 79382
# 94423
# 118143
# 130532
# 147029
# 160687
# 174607
# 189388
# 206078
# 215269
# 240643
# 254712
# 270566
# 288027
# 309276
# 326241
#
# Disc length: 4550 seconds
#
# Revision: 0
# Processed by: cddbd v1.4PL0 Copyright (c) Steve Scherf et al.
# Submitted via: Audion 3.0.2 (http://www.panic.com/audion/)
#
DISCID=3911c415
DTITLE=Various Artisits - Blues in All Natural
DYEAR=1900
DGENRE=
TTITLE0=One Monkey Don't Stop the Show/Sonny Terry
TTITLE1=Sonny's Coming/Sonny Terry
TTITLE2=East Coast Blues/Sonny Terry and Brownie McGhee
TTITLE3=High Powered Woman/Sonny Terry
TTITLE4=Rocky Mountain/Lightnin' Hopkins with Sonny Terry
TTITLE5=The Fox Chase/Billy Bizor with Lightnin' Hopkins
TTITLE6=Mama Blues/Billy Bizor with Lightnin' Hopkins
TTITLE7=Choo Choo de Shoo Shoo/Wade Walton
TTITLE8=Uncle Sam Blues/Memphis Willie B.
TTITLE9=The Stuff is Here/Memphis Willie B.
TTITLE10=Mailman Blues/Memphis Willie B.
TTITLE11=Buy Me an Airplane/Sidney Maiden
TTITLE12=San Quentin Blues/Sidney Maiden
TTITLE13=Hand-Me-Down Baby/Sidney Maiden
TTITLE14=The Drunkard/Mercy Dee with Sidney Maiden
TTITLE15=Five Card Hand/Mercy Dee with Sidney Maiden
TTITLE16=The Coon Hunt/Rev. Gary Davis
TTITLE17=Trouble if I Don't Use My Head/Jesse Fuller
TTITLE18=Take This Hammer/Jesse Fuller
TTITLE19=Sonny's Squall/Sonny Terry and Brownie McGhee
TTITLE20=Red River Blues/Sonny Terry and Brownie McGhee
EXTD=
EXTT0=
EXTT1=
EXTT2=
EXTT3=
EXTT4=
EXTT5=
EXTT6=
EXTT7=
EXTT8=
EXTT9=
EXTT10=
EXTT11=
EXTT12=
EXTT13=
EXTT14=
EXTT15=
EXTT16=
EXTT17=
EXTT18=
EXTT19=
EXTT20=
PLAYORDER=
